<?xml version="1.0" standalone="no"?>
<!DOCTYPE svg PUBLIC "-//W3C//DTD SVG 20010904//EN"
 "http://www.w3.org/TR/2001/REC-SVG-20010904/DTD/svg10.dtd">
<svg version="1.0" xmlns="http://www.w3.org/2000/svg"
 width="512.000000pt" height="512.000000pt" viewBox="0 0 512.000000 512.000000"
 preserveAspectRatio="xMidYMid meet">

<g transform="translate(0.000000,512.000000) scale(0.100000,-0.100000)"
fill="#000000" stroke="none">
<path d="M2355 5110 c-504 -43 -969 -225 -1375 -538 -101 -78 -334 -308 -412
-407 -294 -374 -468 -774 -539 -1240 -41 -268 -28 -637 32 -909 83 -379 258
-746 503 -1056 76 -96 299 -319 395 -394 309 -245 658 -413 1036 -500 346 -79
765 -81 1109 -5 380 84 748 259 1056 503 98 78 321 301 396 396 292 371 477
805 540 1270 23 169 23 491 0 660 -147 1078 -935 1936 -1991 2169 -216 48
-535 69 -750 51z m1482 -1262 c118 -117 183 -190 183 -203 0 -13 -179 -199
-532 -552 l-533 -533 538 -538 c295 -295 537 -541 537 -546 0 -20 -364 -376
-385 -376 -13 0 -199 179 -552 532 l-533 533 -533 -533 c-353 -353 -539 -532
-552 -532 -24 0 -385 357 -385 380 0 8 239 254 532 546 l531 532 -524 531
c-288 292 -526 538 -528 547 -4 20 356 384 379 384 8 0 255 -240 547 -532
l533 -533 532 538 c293 296 539 538 547 537 8 0 97 -82 198 -182z"/>
</g>
</svg>
