<?xml version="1.0" standalone="no"?>
<!DOCTYPE svg PUBLIC "-//W3C//DTD SVG 20010904//EN"
 "http://www.w3.org/TR/2001/REC-SVG-20010904/DTD/svg10.dtd">
<svg version="1.0" xmlns="http://www.w3.org/2000/svg"
 width="512.000000pt" height="512.000000pt" viewBox="0 0 512.000000 512.000000"
 preserveAspectRatio="xMidYMid meet">
<metadata>
Created by potrace 1.16, written by Peter Selinger 2001-2019
</metadata>
<g transform="translate(0.000000,512.000000) scale(0.100000,-0.100000)"
fill="#000000" stroke="none">
<path d="M1280 3725 c-696 -536 -1269 -980 -1274 -988 -6 -10 64 -109 258
-360 147 -191 269 -347 272 -347 3 0 62 43 130 95 l124 96 2 -903 3 -903 763
-3 762 -2 0 670 0 670 270 0 270 0 0 -670 0 -670 733 2 732 3 3 903 2 903 124
-96 c68 -52 127 -95 130 -95 8 0 536 688 536 699 0 6 -162 135 -360 287 l-360
277 0 539 0 538 -450 0 -450 0 -2 -190 -3 -191 -462 356 c-254 195 -468 355
-475 354 -7 0 -582 -438 -1278 -974z m1901 110 c336 -259 615 -471 620 -473 5
-2 9 144 9 347 l0 351 140 0 140 0 0 -462 0 -463 299 -230 300 -229 -27 -36
c-87 -118 -128 -169 -135 -170 -5 0 -447 338 -982 750 -536 413 -979 750 -985
750 -6 0 -449 -337 -985 -750 -535 -412 -977 -750 -982 -750 -7 1 -152 187
-156 202 -3 9 2116 1638 2126 1635 4 -1 282 -214 618 -472z m114 -818 l725
-558 0 -864 0 -865 -425 0 -425 0 0 665 0 665 -580 0 -580 0 0 -665 0 -665
-455 0 -455 0 0 865 0 864 728 560 c400 308 730 559 734 558 4 -1 334 -253
733 -560z"/>
</g>
</svg>
