<?xml version="1.0" standalone="no"?>
<!DOCTYPE svg PUBLIC "-//W3C//DTD SVG 20010904//EN"
 "http://www.w3.org/TR/2001/REC-SVG-20010904/DTD/svg10.dtd">
<svg version="1.0" xmlns="http://www.w3.org/2000/svg"
 width="512.000000pt" height="512.000000pt" viewBox="0 0 512.000000 512.000000"
 preserveAspectRatio="xMidYMid meet">

<g transform="translate(0.000000,512.000000) scale(0.100000,-0.100000)"
fill="#000000" stroke="none">
<path d="M2515 3830 c-1537 -802 -2478 -1299 -2492 -1315 -47 -54 -20 -132 56
-163 25 -10 450 -160 944 -333 l897 -314 0 -705 c0 -677 1 -706 19 -736 12
-20 34 -37 55 -44 76 -25 73 -29 501 582 214 307 395 558 401 558 6 0 314
-106 685 -236 851 -299 788 -279 833 -260 23 10 41 27 51 48 14 30 655 4061
655 4117 0 36 -61 91 -101 91 -25 0 -681 -338 -2504 -1290z m2055 -940 c-154
-975 -282 -1775 -285 -1778 -7 -7 -2086 721 -2083 730 6 14 2643 2835 2646
2829 1 -4 -124 -805 -278 -1781z m-235 1553 c-91 -98 -657 -705 -1258 -1350
-601 -644 -1099 -1172 -1107 -1172 -13 -1 -1550 533 -1577 548 -10 5 4075
2148 4100 2150 5 1 -66 -79 -158 -176z m-1940 -2904 c142 -49 264 -93 271 -97
8 -5 -72 -128 -254 -389 -147 -210 -270 -382 -274 -382 -5 -1 -8 215 -8 479 0
264 1 480 3 480 2 0 119 -41 262 -91z"/>
</g>
</svg>
